M48
;DRILL file {KiCad (5.0.0)} date 02/06/19 16:41:14
;FORMAT={-:-/ absolute / metric / decimal}
FMAT,2
METRIC,TZ
T1C0.700
T2C0.800
T3C1.000
T4C1.100
T5C1.143
%
G90
G05
M71
T1
X25.4Y-28.575
X25.4Y-33.655
T2
X17.185Y-24.765
X19.685Y-24.765
X13.335Y-1.945
X13.335Y-4.445
X17.78Y-1.945
X17.78Y-4.445
X31.115Y-8.255
X31.115Y-10.795
X31.115Y-13.335
X31.115Y-15.875
X31.115Y-18.415
X31.115Y-20.955
X31.115Y-23.495
X31.115Y-26.035
X31.115Y-28.575
X31.115Y-31.115
X31.115Y-33.655
X31.115Y-36.195
X31.115Y-38.735
X31.115Y-41.275
X31.115Y-43.815
X46.355Y-8.255
X46.355Y-10.795
X46.355Y-13.335
X46.355Y-15.875
X46.355Y-18.415
X46.355Y-20.955
X46.355Y-23.495
X46.355Y-26.035
X46.355Y-28.575
X46.355Y-31.115
X46.355Y-33.655
X46.355Y-36.195
X46.355Y-38.735
X46.355Y-41.275
X46.355Y-43.815
T3
X2.54Y-15.875
X5.08Y-15.875
X7.62Y-15.875
X15.875Y-29.845
X18.415Y-29.845
X20.955Y-29.845
X2.54Y-34.925
X5.08Y-34.925
X7.62Y-34.925
X15.875Y-33.655
X18.415Y-33.655
X20.955Y-33.655
X2.54Y-23.495
X5.08Y-23.495
X7.62Y-23.495
X2.54Y-31.115
X5.08Y-31.115
X7.62Y-31.115
X4.445Y-41.275
X4.445Y-43.815
X2.54Y-27.305
X5.08Y-27.305
X7.62Y-27.305
X2.54Y-19.685
X5.08Y-19.685
X7.62Y-19.685
X2.54Y-8.255
X5.08Y-8.255
X7.62Y-8.255
X2.54Y-12.065
X5.08Y-12.065
X7.62Y-12.065
X2.54Y-3.175
X5.08Y-3.175
T4
X19.63Y-40.64
X19.63Y-47.14
X24.13Y-40.64
X24.13Y-47.14
X9.525Y-39.37
X9.525Y-46.99
T5
X15.24Y-40.64
X15.24Y-43.18
X15.24Y-45.72
T0
M30
