G04 #@! TF.GenerationSoftware,KiCad,Pcbnew,(5.0.0)*
G04 #@! TF.CreationDate,2019-02-06T16:41:10-08:00*
G04 #@! TF.ProjectId,controller,636F6E74726F6C6C65722E6B69636164,rev?*
G04 #@! TF.SameCoordinates,Original*
G04 #@! TF.FileFunction,Legend,Top*
G04 #@! TF.FilePolarity,Positive*
%FSLAX46Y46*%
G04 Gerber Fmt 4.6, Leading zero omitted, Abs format (unit mm)*
G04 Created by KiCad (PCBNEW (5.0.0)) date 02/06/19 16:41:10*
%MOMM*%
%LPD*%
G01*
G04 APERTURE LIST*
%ADD10C,0.120000*%
%ADD11C,0.250000*%
%ADD12C,0.150000*%
G04 APERTURE END LIST*
D10*
G04 #@! TO.C,R1*
X23540000Y-23630000D02*
X23540000Y-24630000D01*
X22180000Y-24630000D02*
X22180000Y-23630000D01*
G04 #@! TO.C,U1*
X17285000Y-20005000D02*
X22085000Y-20005000D01*
X17285000Y-9205000D02*
X22085000Y-9205000D01*
X17285000Y-9605000D02*
X15885000Y-9605000D01*
X17285000Y-9205000D02*
X17285000Y-9605000D01*
G04 #@! TO.C,R2*
X24540000Y-29255000D02*
X24540000Y-32975000D01*
X26260000Y-29255000D02*
X26260000Y-32975000D01*
G04 #@! TO.C,R1*
D11*
X25217380Y-25566666D02*
X24741190Y-25900000D01*
X25217380Y-26138095D02*
X24217380Y-26138095D01*
X24217380Y-25757142D01*
X24265000Y-25661904D01*
X24312619Y-25614285D01*
X24407857Y-25566666D01*
X24550714Y-25566666D01*
X24645952Y-25614285D01*
X24693571Y-25661904D01*
X24741190Y-25757142D01*
X24741190Y-26138095D01*
X25217380Y-24614285D02*
X25217380Y-25185714D01*
X25217380Y-24900000D02*
X24217380Y-24900000D01*
X24360238Y-24995238D01*
X24455476Y-25090476D01*
X24503095Y-25185714D01*
G04 #@! TO.C,U1*
X18923095Y-7707380D02*
X18923095Y-8516904D01*
X18970714Y-8612142D01*
X19018333Y-8659761D01*
X19113571Y-8707380D01*
X19304047Y-8707380D01*
X19399285Y-8659761D01*
X19446904Y-8612142D01*
X19494523Y-8516904D01*
X19494523Y-7707380D01*
X20494523Y-8707380D02*
X19923095Y-8707380D01*
X20208809Y-8707380D02*
X20208809Y-7707380D01*
X20113571Y-7850238D01*
X20018333Y-7945476D01*
X19923095Y-7993095D01*
G04 #@! TO.C,R2*
D12*
X27712380Y-31281666D02*
X27236190Y-31615000D01*
X27712380Y-31853095D02*
X26712380Y-31853095D01*
X26712380Y-31472142D01*
X26760000Y-31376904D01*
X26807619Y-31329285D01*
X26902857Y-31281666D01*
X27045714Y-31281666D01*
X27140952Y-31329285D01*
X27188571Y-31376904D01*
X27236190Y-31472142D01*
X27236190Y-31853095D01*
X26807619Y-30900714D02*
X26760000Y-30853095D01*
X26712380Y-30757857D01*
X26712380Y-30519761D01*
X26760000Y-30424523D01*
X26807619Y-30376904D01*
X26902857Y-30329285D01*
X26998095Y-30329285D01*
X27140952Y-30376904D01*
X27712380Y-30948333D01*
X27712380Y-30329285D01*
G04 #@! TD*
M02*
