G04 #@! TF.GenerationSoftware,KiCad,Pcbnew,(5.0.0)*
G04 #@! TF.CreationDate,2019-02-06T16:41:10-08:00*
G04 #@! TF.ProjectId,controller,636F6E74726F6C6C65722E6B69636164,rev?*
G04 #@! TF.SameCoordinates,Original*
G04 #@! TF.FileFunction,Legend,Bot*
G04 #@! TF.FilePolarity,Positive*
%FSLAX46Y46*%
G04 Gerber Fmt 4.6, Leading zero omitted, Abs format (unit mm)*
G04 Created by KiCad (PCBNEW (5.0.0)) date 02/06/19 16:41:10*
%MOMM*%
%LPD*%
G01*
G04 APERTURE LIST*
%ADD10C,0.250000*%
%ADD11C,0.300000*%
%ADD12C,0.120000*%
%ADD13C,0.150000*%
%ADD14C,0.010000*%
G04 APERTURE END LIST*
D10*
X2285952Y-43886428D02*
X1524047Y-43886428D01*
X2285952Y-5786428D02*
X1524047Y-5786428D01*
D11*
X27082142Y-10767142D02*
X26867857Y-10838571D01*
X26510714Y-10838571D01*
X26367857Y-10767142D01*
X26296428Y-10695714D01*
X26225000Y-10552857D01*
X26225000Y-10410000D01*
X26296428Y-10267142D01*
X26367857Y-10195714D01*
X26510714Y-10124285D01*
X26796428Y-10052857D01*
X26939285Y-9981428D01*
X27010714Y-9910000D01*
X27082142Y-9767142D01*
X27082142Y-9624285D01*
X27010714Y-9481428D01*
X26939285Y-9410000D01*
X26796428Y-9338571D01*
X26439285Y-9338571D01*
X26225000Y-9410000D01*
X24796428Y-9410000D02*
X24939285Y-9338571D01*
X25153571Y-9338571D01*
X25367857Y-9410000D01*
X25510714Y-9552857D01*
X25582142Y-9695714D01*
X25653571Y-9981428D01*
X25653571Y-10195714D01*
X25582142Y-10481428D01*
X25510714Y-10624285D01*
X25367857Y-10767142D01*
X25153571Y-10838571D01*
X25010714Y-10838571D01*
X24796428Y-10767142D01*
X24725000Y-10695714D01*
X24725000Y-10195714D01*
X25010714Y-10195714D01*
X23225000Y-10695714D02*
X23296428Y-10767142D01*
X23510714Y-10838571D01*
X23653571Y-10838571D01*
X23867857Y-10767142D01*
X24010714Y-10624285D01*
X24082142Y-10481428D01*
X24153571Y-10195714D01*
X24153571Y-9981428D01*
X24082142Y-9695714D01*
X24010714Y-9552857D01*
X23867857Y-9410000D01*
X23653571Y-9338571D01*
X23510714Y-9338571D01*
X23296428Y-9410000D01*
X23225000Y-9481428D01*
X21582142Y-9838571D02*
X21225000Y-10838571D01*
X20867857Y-9838571D01*
X19510714Y-10838571D02*
X20367857Y-10838571D01*
X19939285Y-10838571D02*
X19939285Y-9338571D01*
X20082142Y-9552857D01*
X20225000Y-9695714D01*
X20367857Y-9767142D01*
X18867857Y-10695714D02*
X18796428Y-10767142D01*
X18867857Y-10838571D01*
X18939285Y-10767142D01*
X18867857Y-10695714D01*
X18867857Y-10838571D01*
X17867857Y-9338571D02*
X17725000Y-9338571D01*
X17582142Y-9410000D01*
X17510714Y-9481428D01*
X17439285Y-9624285D01*
X17367857Y-9910000D01*
X17367857Y-10267142D01*
X17439285Y-10552857D01*
X17510714Y-10695714D01*
X17582142Y-10767142D01*
X17725000Y-10838571D01*
X17867857Y-10838571D01*
X18010714Y-10767142D01*
X18082142Y-10695714D01*
X18153571Y-10552857D01*
X18225000Y-10267142D01*
X18225000Y-9910000D01*
X18153571Y-9624285D01*
X18082142Y-9481428D01*
X18010714Y-9410000D01*
X17867857Y-9338571D01*
D12*
G04 #@! TO.C,A1*
X47755000Y-47755000D02*
X29715000Y-47755000D01*
X47755000Y-4315000D02*
X47755000Y-47755000D01*
X29715000Y-4315000D02*
X47755000Y-4315000D01*
X32385000Y-6985000D02*
X29715000Y-6985000D01*
X32385000Y-42545000D02*
X32385000Y-6985000D01*
X32385000Y-42545000D02*
X29715000Y-42545000D01*
X45085000Y-6985000D02*
X47755000Y-6985000D01*
X45085000Y-45085000D02*
X45085000Y-6985000D01*
X45085000Y-45085000D02*
X47755000Y-45085000D01*
X29715000Y-47755000D02*
X29715000Y-45085000D01*
X29715000Y-42545000D02*
X29715000Y-4315000D01*
X32385000Y-45085000D02*
X29715000Y-45085000D01*
X32385000Y-42545000D02*
X32385000Y-45085000D01*
G04 #@! TO.C,C1*
X18430000Y-6045000D02*
X17130000Y-6045000D01*
X17780000Y-6645000D02*
X17780000Y-5445000D01*
X18134000Y-634000D02*
X17426000Y-634000D01*
X18339000Y-674000D02*
X17221000Y-674000D01*
X18487000Y-714000D02*
X17073000Y-714000D01*
X18609000Y-754000D02*
X16951000Y-754000D01*
X18714000Y-794000D02*
X16846000Y-794000D01*
X18808000Y-834000D02*
X16752000Y-834000D01*
X18892000Y-874000D02*
X16668000Y-874000D01*
X18969000Y-914000D02*
X16591000Y-914000D01*
X19041000Y-954000D02*
X16519000Y-954000D01*
X16800000Y-994000D02*
X16453000Y-994000D01*
X19107000Y-994000D02*
X18760000Y-994000D01*
X16800000Y-1034000D02*
X16390000Y-1034000D01*
X19170000Y-1034000D02*
X18760000Y-1034000D01*
X16800000Y-1074000D02*
X16332000Y-1074000D01*
X19228000Y-1074000D02*
X18760000Y-1074000D01*
X16800000Y-1114000D02*
X16276000Y-1114000D01*
X19284000Y-1114000D02*
X18760000Y-1114000D01*
X16800000Y-1154000D02*
X16224000Y-1154000D01*
X19336000Y-1154000D02*
X18760000Y-1154000D01*
X16800000Y-1194000D02*
X16174000Y-1194000D01*
X19386000Y-1194000D02*
X18760000Y-1194000D01*
X16800000Y-1234000D02*
X16126000Y-1234000D01*
X19434000Y-1234000D02*
X18760000Y-1234000D01*
X16800000Y-1274000D02*
X16081000Y-1274000D01*
X19479000Y-1274000D02*
X18760000Y-1274000D01*
X16800000Y-1314000D02*
X16038000Y-1314000D01*
X19522000Y-1314000D02*
X18760000Y-1314000D01*
X16800000Y-1354000D02*
X15997000Y-1354000D01*
X19563000Y-1354000D02*
X18760000Y-1354000D01*
X16800000Y-1394000D02*
X15957000Y-1394000D01*
X19603000Y-1394000D02*
X18760000Y-1394000D01*
X16800000Y-1434000D02*
X15919000Y-1434000D01*
X19641000Y-1434000D02*
X18760000Y-1434000D01*
X16800000Y-1474000D02*
X15883000Y-1474000D01*
X19677000Y-1474000D02*
X18760000Y-1474000D01*
X16800000Y-1514000D02*
X15848000Y-1514000D01*
X19712000Y-1514000D02*
X18760000Y-1514000D01*
X16800000Y-1554000D02*
X15815000Y-1554000D01*
X19745000Y-1554000D02*
X18760000Y-1554000D01*
X16800000Y-1594000D02*
X15783000Y-1594000D01*
X19777000Y-1594000D02*
X18760000Y-1594000D01*
X16800000Y-1634000D02*
X15752000Y-1634000D01*
X19808000Y-1634000D02*
X18760000Y-1634000D01*
X16800000Y-1674000D02*
X15722000Y-1674000D01*
X19838000Y-1674000D02*
X18760000Y-1674000D01*
X16800000Y-1714000D02*
X15694000Y-1714000D01*
X19866000Y-1714000D02*
X18760000Y-1714000D01*
X16800000Y-1754000D02*
X15667000Y-1754000D01*
X19893000Y-1754000D02*
X18760000Y-1754000D01*
X16800000Y-1794000D02*
X15640000Y-1794000D01*
X19920000Y-1794000D02*
X18760000Y-1794000D01*
X16800000Y-1834000D02*
X15615000Y-1834000D01*
X19945000Y-1834000D02*
X18760000Y-1834000D01*
X16800000Y-1874000D02*
X15591000Y-1874000D01*
X19969000Y-1874000D02*
X18760000Y-1874000D01*
X16800000Y-1914000D02*
X15568000Y-1914000D01*
X19992000Y-1914000D02*
X18760000Y-1914000D01*
X16800000Y-1954000D02*
X15546000Y-1954000D01*
X20014000Y-1954000D02*
X18760000Y-1954000D01*
X16800000Y-1994000D02*
X15524000Y-1994000D01*
X20036000Y-1994000D02*
X18760000Y-1994000D01*
X16800000Y-2034000D02*
X15504000Y-2034000D01*
X20056000Y-2034000D02*
X18760000Y-2034000D01*
X16800000Y-2074000D02*
X15484000Y-2074000D01*
X20076000Y-2074000D02*
X18760000Y-2074000D01*
X16800000Y-2114000D02*
X15465000Y-2114000D01*
X20095000Y-2114000D02*
X18760000Y-2114000D01*
X16800000Y-2154000D02*
X15447000Y-2154000D01*
X20113000Y-2154000D02*
X18760000Y-2154000D01*
X16800000Y-2194000D02*
X15430000Y-2194000D01*
X20130000Y-2194000D02*
X18760000Y-2194000D01*
X16800000Y-2234000D02*
X15414000Y-2234000D01*
X20146000Y-2234000D02*
X18760000Y-2234000D01*
X16800000Y-2274000D02*
X15398000Y-2274000D01*
X20162000Y-2274000D02*
X18760000Y-2274000D01*
X16800000Y-2314000D02*
X15384000Y-2314000D01*
X20176000Y-2314000D02*
X18760000Y-2314000D01*
X16800000Y-2354000D02*
X15370000Y-2354000D01*
X20190000Y-2354000D02*
X18760000Y-2354000D01*
X16800000Y-2394000D02*
X15356000Y-2394000D01*
X20204000Y-2394000D02*
X18760000Y-2394000D01*
X16800000Y-2434000D02*
X15344000Y-2434000D01*
X20216000Y-2434000D02*
X18760000Y-2434000D01*
X16800000Y-2474000D02*
X15332000Y-2474000D01*
X20228000Y-2474000D02*
X18760000Y-2474000D01*
X16800000Y-2515000D02*
X15320000Y-2515000D01*
X20240000Y-2515000D02*
X18760000Y-2515000D01*
X16800000Y-2555000D02*
X15310000Y-2555000D01*
X20250000Y-2555000D02*
X18760000Y-2555000D01*
X16800000Y-2595000D02*
X15300000Y-2595000D01*
X20260000Y-2595000D02*
X18760000Y-2595000D01*
X16800000Y-2635000D02*
X15291000Y-2635000D01*
X20269000Y-2635000D02*
X18760000Y-2635000D01*
X16800000Y-2675000D02*
X15282000Y-2675000D01*
X20278000Y-2675000D02*
X18760000Y-2675000D01*
X16800000Y-2715000D02*
X15274000Y-2715000D01*
X20286000Y-2715000D02*
X18760000Y-2715000D01*
X16800000Y-2755000D02*
X15267000Y-2755000D01*
X20293000Y-2755000D02*
X18760000Y-2755000D01*
X16800000Y-2795000D02*
X15261000Y-2795000D01*
X20299000Y-2795000D02*
X18760000Y-2795000D01*
X16800000Y-2835000D02*
X15255000Y-2835000D01*
X20305000Y-2835000D02*
X18760000Y-2835000D01*
X16800000Y-2875000D02*
X15249000Y-2875000D01*
X20311000Y-2875000D02*
X18760000Y-2875000D01*
X16800000Y-2915000D02*
X15245000Y-2915000D01*
X20315000Y-2915000D02*
X18760000Y-2915000D01*
X20319000Y-2955000D02*
X15241000Y-2955000D01*
X20323000Y-2995000D02*
X15237000Y-2995000D01*
X20326000Y-3035000D02*
X15234000Y-3035000D01*
X20328000Y-3075000D02*
X15232000Y-3075000D01*
X20329000Y-3115000D02*
X15231000Y-3115000D01*
X20330000Y-3155000D02*
X15230000Y-3155000D01*
X20330000Y-3195000D02*
X15230000Y-3195000D01*
X16600277Y-889278D02*
G75*
G02X18960000Y-889420I1179723J-2305722D01*
G01*
X16600277Y-889278D02*
G75*
G03X16600000Y-5500580I1179723J-2305722D01*
G01*
X18959723Y-889278D02*
G75*
G02X18960000Y-5500580I-1179723J-2305722D01*
G01*
G04 #@! TO.C,C2*
X14645000Y-5755000D02*
X14645000Y-635000D01*
X12025000Y-5755000D02*
X12025000Y-635000D01*
X14645000Y-5755000D02*
X12025000Y-5755000D01*
X14645000Y-635000D02*
X12025000Y-635000D01*
G04 #@! TO.C,C3*
X15875000Y-23455000D02*
X15875000Y-26075000D01*
X20995000Y-23455000D02*
X20995000Y-26075000D01*
X20995000Y-26075000D02*
X15875000Y-26075000D01*
X20995000Y-23455000D02*
X15875000Y-23455000D01*
D13*
G04 #@! TO.C,Q1*
X12192000Y-48514000D02*
X12192000Y-37846000D01*
X12192000Y-48514000D02*
X17018000Y-48514000D01*
X12192000Y-37846000D02*
X17018000Y-37846000D01*
X17018000Y-48514000D02*
X17018000Y-37846000D01*
X13589000Y-37846000D02*
X13589000Y-48514000D01*
X13462000Y-41402000D02*
X12192000Y-41402000D01*
X13462000Y-44958000D02*
X12192000Y-44958000D01*
X12446000Y-48514000D02*
X12446000Y-37846000D01*
X13589000Y-38354000D02*
X17018000Y-38354000D01*
X13589000Y-48006000D02*
X17018000Y-48006000D01*
D12*
G04 #@! TO.C,D1*
X8245000Y-40520000D02*
X8115000Y-40520000D01*
X8115000Y-40520000D02*
X8115000Y-45840000D01*
X8115000Y-45840000D02*
X8245000Y-45840000D01*
X10805000Y-40520000D02*
X10935000Y-40520000D01*
X10935000Y-40520000D02*
X10935000Y-45840000D01*
X10935000Y-45840000D02*
X10805000Y-45840000D01*
X8115000Y-41360000D02*
X10935000Y-41360000D01*
G04 #@! TO.C,PWM1*
X1210000Y-9585000D02*
X1210000Y-6925000D01*
X6350000Y-9585000D02*
X1210000Y-9585000D01*
X6350000Y-6925000D02*
X1210000Y-6925000D01*
X6350000Y-9585000D02*
X6350000Y-6925000D01*
X7620000Y-9585000D02*
X8950000Y-9585000D01*
X8950000Y-9585000D02*
X8950000Y-8255000D01*
G04 #@! TO.C,PWM2*
X8950000Y-13395000D02*
X8950000Y-12065000D01*
X7620000Y-13395000D02*
X8950000Y-13395000D01*
X6350000Y-13395000D02*
X6350000Y-10735000D01*
X6350000Y-10735000D02*
X1210000Y-10735000D01*
X6350000Y-13395000D02*
X1210000Y-13395000D01*
X1210000Y-13395000D02*
X1210000Y-10735000D01*
G04 #@! TO.C,PWM3*
X1210000Y-17205000D02*
X1210000Y-14545000D01*
X6350000Y-17205000D02*
X1210000Y-17205000D01*
X6350000Y-14545000D02*
X1210000Y-14545000D01*
X6350000Y-17205000D02*
X6350000Y-14545000D01*
X7620000Y-17205000D02*
X8950000Y-17205000D01*
X8950000Y-17205000D02*
X8950000Y-15875000D01*
G04 #@! TO.C,PWM4*
X8950000Y-21015000D02*
X8950000Y-19685000D01*
X7620000Y-21015000D02*
X8950000Y-21015000D01*
X6350000Y-21015000D02*
X6350000Y-18355000D01*
X6350000Y-18355000D02*
X1210000Y-18355000D01*
X6350000Y-21015000D02*
X1210000Y-21015000D01*
X1210000Y-21015000D02*
X1210000Y-18355000D01*
G04 #@! TO.C,PWM5*
X1210000Y-24825000D02*
X1210000Y-22165000D01*
X6350000Y-24825000D02*
X1210000Y-24825000D01*
X6350000Y-22165000D02*
X1210000Y-22165000D01*
X6350000Y-24825000D02*
X6350000Y-22165000D01*
X7620000Y-24825000D02*
X8950000Y-24825000D01*
X8950000Y-24825000D02*
X8950000Y-23495000D01*
G04 #@! TO.C,PWM6*
X8950000Y-28635000D02*
X8950000Y-27305000D01*
X7620000Y-28635000D02*
X8950000Y-28635000D01*
X6350000Y-28635000D02*
X6350000Y-25975000D01*
X6350000Y-25975000D02*
X1210000Y-25975000D01*
X6350000Y-28635000D02*
X1210000Y-28635000D01*
X1210000Y-28635000D02*
X1210000Y-25975000D01*
G04 #@! TO.C,PWM7*
X8950000Y-32445000D02*
X8950000Y-31115000D01*
X7620000Y-32445000D02*
X8950000Y-32445000D01*
X6350000Y-32445000D02*
X6350000Y-29785000D01*
X6350000Y-29785000D02*
X1210000Y-29785000D01*
X6350000Y-32445000D02*
X1210000Y-32445000D01*
X1210000Y-32445000D02*
X1210000Y-29785000D01*
G04 #@! TO.C,PWM8*
X1210000Y-36255000D02*
X1210000Y-33595000D01*
X6350000Y-36255000D02*
X1210000Y-36255000D01*
X6350000Y-33595000D02*
X1210000Y-33595000D01*
X6350000Y-36255000D02*
X6350000Y-33595000D01*
X7620000Y-36255000D02*
X8950000Y-36255000D01*
X8950000Y-36255000D02*
X8950000Y-34925000D01*
G04 #@! TO.C,PWMIN1*
X14545000Y-31175000D02*
X14545000Y-28515000D01*
X19685000Y-31175000D02*
X14545000Y-31175000D01*
X19685000Y-28515000D02*
X14545000Y-28515000D01*
X19685000Y-31175000D02*
X19685000Y-28515000D01*
X20955000Y-31175000D02*
X22285000Y-31175000D01*
X22285000Y-31175000D02*
X22285000Y-29845000D01*
G04 #@! TO.C,PWMIN2*
X22285000Y-34985000D02*
X22285000Y-33655000D01*
X20955000Y-34985000D02*
X22285000Y-34985000D01*
X19685000Y-34985000D02*
X19685000Y-32325000D01*
X19685000Y-32325000D02*
X14545000Y-32325000D01*
X19685000Y-34985000D02*
X14545000Y-34985000D01*
X14545000Y-34985000D02*
X14545000Y-32325000D01*
G04 #@! TO.C,SWPWR1*
X5775000Y-39945000D02*
X4445000Y-39945000D01*
X5775000Y-41275000D02*
X5775000Y-39945000D01*
X5775000Y-42545000D02*
X3115000Y-42545000D01*
X3115000Y-42545000D02*
X3115000Y-45145000D01*
X5775000Y-42545000D02*
X5775000Y-45145000D01*
X5775000Y-45145000D02*
X3115000Y-45145000D01*
G04 #@! TO.C,SWPWR_TEST1*
X22630000Y-47390000D02*
X21130000Y-47390000D01*
X18630000Y-46140000D02*
X18630000Y-41640000D01*
X21130000Y-40390000D02*
X22630000Y-40390000D01*
X25130000Y-41640000D02*
X25130000Y-46140000D01*
G04 #@! TO.C,VIN1*
X1210000Y-4505000D02*
X1210000Y-1845000D01*
X3810000Y-4505000D02*
X1210000Y-4505000D01*
X3810000Y-1845000D02*
X1210000Y-1845000D01*
X3810000Y-4505000D02*
X3810000Y-1845000D01*
X5080000Y-4505000D02*
X6410000Y-4505000D01*
X6410000Y-4505000D02*
X6410000Y-3175000D01*
D14*
G04 #@! TO.C,REF\002A\002A\002A*
G36*
X21669186Y-13343931D02*
X21585365Y-13788555D01*
X21276080Y-13916053D01*
X20966794Y-14043551D01*
X20595754Y-13791246D01*
X20491843Y-13720996D01*
X20397913Y-13658272D01*
X20318348Y-13605938D01*
X20257530Y-13566857D01*
X20219843Y-13543893D01*
X20209579Y-13538942D01*
X20191090Y-13551676D01*
X20151580Y-13586882D01*
X20095478Y-13640062D01*
X20027213Y-13706718D01*
X19951214Y-13782354D01*
X19871908Y-13862472D01*
X19793725Y-13942574D01*
X19721093Y-14018164D01*
X19658441Y-14084745D01*
X19610197Y-14137818D01*
X19580790Y-14172887D01*
X19573759Y-14184623D01*
X19583877Y-14206260D01*
X19612241Y-14253662D01*
X19655871Y-14322193D01*
X19711782Y-14407215D01*
X19776994Y-14504093D01*
X19814781Y-14559350D01*
X19883657Y-14660248D01*
X19944860Y-14751299D01*
X19995422Y-14827970D01*
X20032372Y-14885728D01*
X20052742Y-14920043D01*
X20055803Y-14927254D01*
X20048864Y-14947748D01*
X20029949Y-14995513D01*
X20001913Y-15063832D01*
X19967609Y-15145989D01*
X19929891Y-15235270D01*
X19891613Y-15324958D01*
X19855630Y-15408338D01*
X19824794Y-15478694D01*
X19801961Y-15529310D01*
X19789983Y-15553471D01*
X19789276Y-15554422D01*
X19770469Y-15559036D01*
X19720382Y-15569328D01*
X19644207Y-15584287D01*
X19547135Y-15602901D01*
X19434357Y-15624159D01*
X19368558Y-15636418D01*
X19248050Y-15659362D01*
X19139203Y-15681195D01*
X19047524Y-15700722D01*
X18978519Y-15716748D01*
X18937696Y-15728079D01*
X18929489Y-15731674D01*
X18921452Y-15756006D01*
X18914967Y-15810959D01*
X18910030Y-15890108D01*
X18906636Y-15987026D01*
X18904782Y-16095287D01*
X18904462Y-16208465D01*
X18905673Y-16320135D01*
X18908410Y-16423868D01*
X18912669Y-16513241D01*
X18918445Y-16581826D01*
X18925733Y-16623197D01*
X18930105Y-16631810D01*
X18956236Y-16642133D01*
X19011607Y-16656892D01*
X19088893Y-16674352D01*
X19180770Y-16692780D01*
X19212842Y-16698741D01*
X19367476Y-16727066D01*
X19489625Y-16749876D01*
X19583327Y-16768080D01*
X19652616Y-16782583D01*
X19701529Y-16794292D01*
X19734103Y-16804115D01*
X19754372Y-16812956D01*
X19766374Y-16821724D01*
X19768053Y-16823457D01*
X19784816Y-16851371D01*
X19810386Y-16905695D01*
X19842212Y-16979777D01*
X19877740Y-17066965D01*
X19914417Y-17160608D01*
X19949689Y-17254052D01*
X19981004Y-17340647D01*
X20005807Y-17413740D01*
X20021546Y-17466678D01*
X20025668Y-17492811D01*
X20025324Y-17493726D01*
X20011359Y-17515086D01*
X19979678Y-17562084D01*
X19933609Y-17629827D01*
X19876482Y-17713423D01*
X19811627Y-17807982D01*
X19793157Y-17834854D01*
X19727301Y-17932275D01*
X19669350Y-18021163D01*
X19622462Y-18096412D01*
X19589793Y-18152920D01*
X19574500Y-18185581D01*
X19573759Y-18189593D01*
X19586608Y-18210684D01*
X19622112Y-18252464D01*
X19675707Y-18310445D01*
X19742829Y-18380135D01*
X19818913Y-18457045D01*
X19899396Y-18536683D01*
X19979713Y-18614561D01*
X20055301Y-18686186D01*
X20121595Y-18747070D01*
X20174031Y-18792721D01*
X20208045Y-18818650D01*
X20217455Y-18822883D01*
X20239357Y-18812912D01*
X20284200Y-18786020D01*
X20344679Y-18746736D01*
X20391211Y-18715117D01*
X20475525Y-18657098D01*
X20575374Y-18588784D01*
X20675527Y-18520579D01*
X20729373Y-18484075D01*
X20911629Y-18360800D01*
X21064619Y-18443520D01*
X21134318Y-18479759D01*
X21193586Y-18507926D01*
X21233689Y-18523991D01*
X21243897Y-18526226D01*
X21256171Y-18509722D01*
X21280387Y-18463082D01*
X21314737Y-18390609D01*
X21357412Y-18296606D01*
X21406606Y-18185374D01*
X21460510Y-18061215D01*
X21517316Y-17928432D01*
X21575218Y-17791327D01*
X21632407Y-17654202D01*
X21687076Y-17521358D01*
X21737416Y-17397098D01*
X21781620Y-17285725D01*
X21817881Y-17191539D01*
X21844391Y-17118844D01*
X21859342Y-17071941D01*
X21861746Y-17055833D01*
X21842689Y-17035286D01*
X21800964Y-17001933D01*
X21745294Y-16962702D01*
X21740622Y-16959599D01*
X21596736Y-16844423D01*
X21480717Y-16710053D01*
X21393570Y-16560784D01*
X21336301Y-16400913D01*
X21309914Y-16234737D01*
X21315415Y-16066552D01*
X21353810Y-15900655D01*
X21426105Y-15741342D01*
X21447374Y-15706487D01*
X21558004Y-15565737D01*
X21688698Y-15452714D01*
X21834936Y-15368003D01*
X21992192Y-15312194D01*
X22155943Y-15285874D01*
X22321667Y-15289630D01*
X22484838Y-15324050D01*
X22640935Y-15389723D01*
X22785433Y-15487235D01*
X22830131Y-15526813D01*
X22943888Y-15650703D01*
X23026782Y-15781124D01*
X23083644Y-15927315D01*
X23115313Y-16072088D01*
X23123131Y-16234860D01*
X23097062Y-16398440D01*
X23039755Y-16557298D01*
X22953856Y-16705906D01*
X22842014Y-16838735D01*
X22706877Y-16950256D01*
X22689117Y-16962011D01*
X22632850Y-17000508D01*
X22590077Y-17033863D01*
X22569628Y-17055160D01*
X22569331Y-17055833D01*
X22573721Y-17078871D01*
X22591124Y-17131157D01*
X22619732Y-17208390D01*
X22657735Y-17306268D01*
X22703326Y-17420491D01*
X22754697Y-17546758D01*
X22810038Y-17680767D01*
X22867542Y-17818218D01*
X22925399Y-17954808D01*
X22981802Y-18086237D01*
X23034942Y-18208205D01*
X23083010Y-18316409D01*
X23124199Y-18406549D01*
X23156699Y-18474323D01*
X23178703Y-18515430D01*
X23187564Y-18526226D01*
X23214640Y-18517819D01*
X23265303Y-18495272D01*
X23330817Y-18462613D01*
X23366841Y-18443520D01*
X23519832Y-18360800D01*
X23702088Y-18484075D01*
X23795125Y-18547228D01*
X23896985Y-18616727D01*
X23992438Y-18682165D01*
X24040250Y-18715117D01*
X24107495Y-18760273D01*
X24164436Y-18796057D01*
X24203646Y-18817938D01*
X24216381Y-18822563D01*
X24234917Y-18810085D01*
X24275941Y-18775252D01*
X24335475Y-18721678D01*
X24409542Y-18652983D01*
X24494165Y-18572781D01*
X24547685Y-18521286D01*
X24641319Y-18429286D01*
X24722241Y-18346999D01*
X24787177Y-18277945D01*
X24832858Y-18225644D01*
X24856011Y-18193616D01*
X24858232Y-18187116D01*
X24847924Y-18162394D01*
X24819439Y-18112405D01*
X24775937Y-18042212D01*
X24720577Y-17956875D01*
X24656520Y-17861456D01*
X24638303Y-17834854D01*
X24571927Y-17738167D01*
X24512378Y-17651117D01*
X24462984Y-17578595D01*
X24427075Y-17525493D01*
X24407981Y-17496703D01*
X24406136Y-17493726D01*
X24408895Y-17470782D01*
X24423538Y-17420336D01*
X24447513Y-17349041D01*
X24478266Y-17263547D01*
X24513244Y-17170507D01*
X24549893Y-17076574D01*
X24585661Y-16988399D01*
X24617994Y-16912634D01*
X24644338Y-16855931D01*
X24662142Y-16824943D01*
X24663407Y-16823457D01*
X24674294Y-16814601D01*
X24692682Y-16805843D01*
X24722606Y-16796277D01*
X24768103Y-16784996D01*
X24833209Y-16771093D01*
X24921961Y-16753663D01*
X25038393Y-16731798D01*
X25186542Y-16704591D01*
X25218618Y-16698741D01*
X25313686Y-16680374D01*
X25396565Y-16662405D01*
X25459930Y-16646569D01*
X25496458Y-16634600D01*
X25501356Y-16631810D01*
X25509427Y-16607072D01*
X25515987Y-16551790D01*
X25521033Y-16472389D01*
X25524559Y-16375296D01*
X25526561Y-16266938D01*
X25527036Y-16153740D01*
X25525977Y-16042128D01*
X25523382Y-15938529D01*
X25519246Y-15849368D01*
X25513563Y-15781072D01*
X25506331Y-15740066D01*
X25501971Y-15731674D01*
X25477698Y-15723208D01*
X25422426Y-15709435D01*
X25341662Y-15691550D01*
X25240912Y-15670748D01*
X25125683Y-15648223D01*
X25062902Y-15636418D01*
X24943787Y-15614151D01*
X24837565Y-15593979D01*
X24749427Y-15576915D01*
X24684566Y-15563969D01*
X24648174Y-15556155D01*
X24642184Y-15554422D01*
X24632061Y-15534890D01*
X24610662Y-15487843D01*
X24580839Y-15420003D01*
X24545445Y-15338091D01*
X24507332Y-15248828D01*
X24469353Y-15158935D01*
X24434360Y-15075135D01*
X24405206Y-15004147D01*
X24384743Y-14952694D01*
X24375823Y-14927497D01*
X24375657Y-14926396D01*
X24385769Y-14906519D01*
X24414117Y-14860777D01*
X24457723Y-14793717D01*
X24513606Y-14709884D01*
X24578787Y-14613826D01*
X24616679Y-14558650D01*
X24685725Y-14457481D01*
X24747050Y-14365630D01*
X24797663Y-14287744D01*
X24834571Y-14228469D01*
X24854782Y-14192451D01*
X24857701Y-14184377D01*
X24845153Y-14165584D01*
X24810463Y-14125457D01*
X24758063Y-14068493D01*
X24692384Y-13999185D01*
X24617856Y-13922031D01*
X24538913Y-13841525D01*
X24459983Y-13762163D01*
X24385500Y-13688440D01*
X24319894Y-13624852D01*
X24267596Y-13575894D01*
X24233039Y-13546061D01*
X24221478Y-13538942D01*
X24202654Y-13548953D01*
X24157631Y-13577078D01*
X24090787Y-13620454D01*
X24006499Y-13676218D01*
X23909144Y-13741506D01*
X23835707Y-13791246D01*
X23464667Y-14043551D01*
X22846095Y-13788555D01*
X22762275Y-13343931D01*
X22678454Y-12899307D01*
X21753006Y-12899307D01*
X21669186Y-13343931D01*
X21669186Y-13343931D01*
G37*
X21669186Y-13343931D02*
X21585365Y-13788555D01*
X21276080Y-13916053D01*
X20966794Y-14043551D01*
X20595754Y-13791246D01*
X20491843Y-13720996D01*
X20397913Y-13658272D01*
X20318348Y-13605938D01*
X20257530Y-13566857D01*
X20219843Y-13543893D01*
X20209579Y-13538942D01*
X20191090Y-13551676D01*
X20151580Y-13586882D01*
X20095478Y-13640062D01*
X20027213Y-13706718D01*
X19951214Y-13782354D01*
X19871908Y-13862472D01*
X19793725Y-13942574D01*
X19721093Y-14018164D01*
X19658441Y-14084745D01*
X19610197Y-14137818D01*
X19580790Y-14172887D01*
X19573759Y-14184623D01*
X19583877Y-14206260D01*
X19612241Y-14253662D01*
X19655871Y-14322193D01*
X19711782Y-14407215D01*
X19776994Y-14504093D01*
X19814781Y-14559350D01*
X19883657Y-14660248D01*
X19944860Y-14751299D01*
X19995422Y-14827970D01*
X20032372Y-14885728D01*
X20052742Y-14920043D01*
X20055803Y-14927254D01*
X20048864Y-14947748D01*
X20029949Y-14995513D01*
X20001913Y-15063832D01*
X19967609Y-15145989D01*
X19929891Y-15235270D01*
X19891613Y-15324958D01*
X19855630Y-15408338D01*
X19824794Y-15478694D01*
X19801961Y-15529310D01*
X19789983Y-15553471D01*
X19789276Y-15554422D01*
X19770469Y-15559036D01*
X19720382Y-15569328D01*
X19644207Y-15584287D01*
X19547135Y-15602901D01*
X19434357Y-15624159D01*
X19368558Y-15636418D01*
X19248050Y-15659362D01*
X19139203Y-15681195D01*
X19047524Y-15700722D01*
X18978519Y-15716748D01*
X18937696Y-15728079D01*
X18929489Y-15731674D01*
X18921452Y-15756006D01*
X18914967Y-15810959D01*
X18910030Y-15890108D01*
X18906636Y-15987026D01*
X18904782Y-16095287D01*
X18904462Y-16208465D01*
X18905673Y-16320135D01*
X18908410Y-16423868D01*
X18912669Y-16513241D01*
X18918445Y-16581826D01*
X18925733Y-16623197D01*
X18930105Y-16631810D01*
X18956236Y-16642133D01*
X19011607Y-16656892D01*
X19088893Y-16674352D01*
X19180770Y-16692780D01*
X19212842Y-16698741D01*
X19367476Y-16727066D01*
X19489625Y-16749876D01*
X19583327Y-16768080D01*
X19652616Y-16782583D01*
X19701529Y-16794292D01*
X19734103Y-16804115D01*
X19754372Y-16812956D01*
X19766374Y-16821724D01*
X19768053Y-16823457D01*
X19784816Y-16851371D01*
X19810386Y-16905695D01*
X19842212Y-16979777D01*
X19877740Y-17066965D01*
X19914417Y-17160608D01*
X19949689Y-17254052D01*
X19981004Y-17340647D01*
X20005807Y-17413740D01*
X20021546Y-17466678D01*
X20025668Y-17492811D01*
X20025324Y-17493726D01*
X20011359Y-17515086D01*
X19979678Y-17562084D01*
X19933609Y-17629827D01*
X19876482Y-17713423D01*
X19811627Y-17807982D01*
X19793157Y-17834854D01*
X19727301Y-17932275D01*
X19669350Y-18021163D01*
X19622462Y-18096412D01*
X19589793Y-18152920D01*
X19574500Y-18185581D01*
X19573759Y-18189593D01*
X19586608Y-18210684D01*
X19622112Y-18252464D01*
X19675707Y-18310445D01*
X19742829Y-18380135D01*
X19818913Y-18457045D01*
X19899396Y-18536683D01*
X19979713Y-18614561D01*
X20055301Y-18686186D01*
X20121595Y-18747070D01*
X20174031Y-18792721D01*
X20208045Y-18818650D01*
X20217455Y-18822883D01*
X20239357Y-18812912D01*
X20284200Y-18786020D01*
X20344679Y-18746736D01*
X20391211Y-18715117D01*
X20475525Y-18657098D01*
X20575374Y-18588784D01*
X20675527Y-18520579D01*
X20729373Y-18484075D01*
X20911629Y-18360800D01*
X21064619Y-18443520D01*
X21134318Y-18479759D01*
X21193586Y-18507926D01*
X21233689Y-18523991D01*
X21243897Y-18526226D01*
X21256171Y-18509722D01*
X21280387Y-18463082D01*
X21314737Y-18390609D01*
X21357412Y-18296606D01*
X21406606Y-18185374D01*
X21460510Y-18061215D01*
X21517316Y-17928432D01*
X21575218Y-17791327D01*
X21632407Y-17654202D01*
X21687076Y-17521358D01*
X21737416Y-17397098D01*
X21781620Y-17285725D01*
X21817881Y-17191539D01*
X21844391Y-17118844D01*
X21859342Y-17071941D01*
X21861746Y-17055833D01*
X21842689Y-17035286D01*
X21800964Y-17001933D01*
X21745294Y-16962702D01*
X21740622Y-16959599D01*
X21596736Y-16844423D01*
X21480717Y-16710053D01*
X21393570Y-16560784D01*
X21336301Y-16400913D01*
X21309914Y-16234737D01*
X21315415Y-16066552D01*
X21353810Y-15900655D01*
X21426105Y-15741342D01*
X21447374Y-15706487D01*
X21558004Y-15565737D01*
X21688698Y-15452714D01*
X21834936Y-15368003D01*
X21992192Y-15312194D01*
X22155943Y-15285874D01*
X22321667Y-15289630D01*
X22484838Y-15324050D01*
X22640935Y-15389723D01*
X22785433Y-15487235D01*
X22830131Y-15526813D01*
X22943888Y-15650703D01*
X23026782Y-15781124D01*
X23083644Y-15927315D01*
X23115313Y-16072088D01*
X23123131Y-16234860D01*
X23097062Y-16398440D01*
X23039755Y-16557298D01*
X22953856Y-16705906D01*
X22842014Y-16838735D01*
X22706877Y-16950256D01*
X22689117Y-16962011D01*
X22632850Y-17000508D01*
X22590077Y-17033863D01*
X22569628Y-17055160D01*
X22569331Y-17055833D01*
X22573721Y-17078871D01*
X22591124Y-17131157D01*
X22619732Y-17208390D01*
X22657735Y-17306268D01*
X22703326Y-17420491D01*
X22754697Y-17546758D01*
X22810038Y-17680767D01*
X22867542Y-17818218D01*
X22925399Y-17954808D01*
X22981802Y-18086237D01*
X23034942Y-18208205D01*
X23083010Y-18316409D01*
X23124199Y-18406549D01*
X23156699Y-18474323D01*
X23178703Y-18515430D01*
X23187564Y-18526226D01*
X23214640Y-18517819D01*
X23265303Y-18495272D01*
X23330817Y-18462613D01*
X23366841Y-18443520D01*
X23519832Y-18360800D01*
X23702088Y-18484075D01*
X23795125Y-18547228D01*
X23896985Y-18616727D01*
X23992438Y-18682165D01*
X24040250Y-18715117D01*
X24107495Y-18760273D01*
X24164436Y-18796057D01*
X24203646Y-18817938D01*
X24216381Y-18822563D01*
X24234917Y-18810085D01*
X24275941Y-18775252D01*
X24335475Y-18721678D01*
X24409542Y-18652983D01*
X24494165Y-18572781D01*
X24547685Y-18521286D01*
X24641319Y-18429286D01*
X24722241Y-18346999D01*
X24787177Y-18277945D01*
X24832858Y-18225644D01*
X24856011Y-18193616D01*
X24858232Y-18187116D01*
X24847924Y-18162394D01*
X24819439Y-18112405D01*
X24775937Y-18042212D01*
X24720577Y-17956875D01*
X24656520Y-17861456D01*
X24638303Y-17834854D01*
X24571927Y-17738167D01*
X24512378Y-17651117D01*
X24462984Y-17578595D01*
X24427075Y-17525493D01*
X24407981Y-17496703D01*
X24406136Y-17493726D01*
X24408895Y-17470782D01*
X24423538Y-17420336D01*
X24447513Y-17349041D01*
X24478266Y-17263547D01*
X24513244Y-17170507D01*
X24549893Y-17076574D01*
X24585661Y-16988399D01*
X24617994Y-16912634D01*
X24644338Y-16855931D01*
X24662142Y-16824943D01*
X24663407Y-16823457D01*
X24674294Y-16814601D01*
X24692682Y-16805843D01*
X24722606Y-16796277D01*
X24768103Y-16784996D01*
X24833209Y-16771093D01*
X24921961Y-16753663D01*
X25038393Y-16731798D01*
X25186542Y-16704591D01*
X25218618Y-16698741D01*
X25313686Y-16680374D01*
X25396565Y-16662405D01*
X25459930Y-16646569D01*
X25496458Y-16634600D01*
X25501356Y-16631810D01*
X25509427Y-16607072D01*
X25515987Y-16551790D01*
X25521033Y-16472389D01*
X25524559Y-16375296D01*
X25526561Y-16266938D01*
X25527036Y-16153740D01*
X25525977Y-16042128D01*
X25523382Y-15938529D01*
X25519246Y-15849368D01*
X25513563Y-15781072D01*
X25506331Y-15740066D01*
X25501971Y-15731674D01*
X25477698Y-15723208D01*
X25422426Y-15709435D01*
X25341662Y-15691550D01*
X25240912Y-15670748D01*
X25125683Y-15648223D01*
X25062902Y-15636418D01*
X24943787Y-15614151D01*
X24837565Y-15593979D01*
X24749427Y-15576915D01*
X24684566Y-15563969D01*
X24648174Y-15556155D01*
X24642184Y-15554422D01*
X24632061Y-15534890D01*
X24610662Y-15487843D01*
X24580839Y-15420003D01*
X24545445Y-15338091D01*
X24507332Y-15248828D01*
X24469353Y-15158935D01*
X24434360Y-15075135D01*
X24405206Y-15004147D01*
X24384743Y-14952694D01*
X24375823Y-14927497D01*
X24375657Y-14926396D01*
X24385769Y-14906519D01*
X24414117Y-14860777D01*
X24457723Y-14793717D01*
X24513606Y-14709884D01*
X24578787Y-14613826D01*
X24616679Y-14558650D01*
X24685725Y-14457481D01*
X24747050Y-14365630D01*
X24797663Y-14287744D01*
X24834571Y-14228469D01*
X24854782Y-14192451D01*
X24857701Y-14184377D01*
X24845153Y-14165584D01*
X24810463Y-14125457D01*
X24758063Y-14068493D01*
X24692384Y-13999185D01*
X24617856Y-13922031D01*
X24538913Y-13841525D01*
X24459983Y-13762163D01*
X24385500Y-13688440D01*
X24319894Y-13624852D01*
X24267596Y-13575894D01*
X24233039Y-13546061D01*
X24221478Y-13538942D01*
X24202654Y-13548953D01*
X24157631Y-13577078D01*
X24090787Y-13620454D01*
X24006499Y-13676218D01*
X23909144Y-13741506D01*
X23835707Y-13791246D01*
X23464667Y-14043551D01*
X22846095Y-13788555D01*
X22762275Y-13343931D01*
X22678454Y-12899307D01*
X21753006Y-12899307D01*
X21669186Y-13343931D01*
G04 #@! TO.C,A1*
D10*
X39449285Y-48426666D02*
X38973095Y-48426666D01*
X39544523Y-48712380D02*
X39211190Y-47712380D01*
X38877857Y-48712380D01*
X38020714Y-48712380D02*
X38592142Y-48712380D01*
X38306428Y-48712380D02*
X38306428Y-47712380D01*
X38401666Y-47855238D01*
X38496904Y-47950476D01*
X38592142Y-47998095D01*
G04 #@! TO.C,C1*
X21947142Y-3028333D02*
X21994761Y-2980714D01*
X22042380Y-2837857D01*
X22042380Y-2742619D01*
X21994761Y-2599761D01*
X21899523Y-2504523D01*
X21804285Y-2456904D01*
X21613809Y-2409285D01*
X21470952Y-2409285D01*
X21280476Y-2456904D01*
X21185238Y-2504523D01*
X21090000Y-2599761D01*
X21042380Y-2742619D01*
X21042380Y-2837857D01*
X21090000Y-2980714D01*
X21137619Y-3028333D01*
X22042380Y-3980714D02*
X22042380Y-3409285D01*
X22042380Y-3695000D02*
X21042380Y-3695000D01*
X21185238Y-3599761D01*
X21280476Y-3504523D01*
X21328095Y-3409285D01*
G04 #@! TO.C,C2*
X16252142Y-3028333D02*
X16299761Y-2980714D01*
X16347380Y-2837857D01*
X16347380Y-2742619D01*
X16299761Y-2599761D01*
X16204523Y-2504523D01*
X16109285Y-2456904D01*
X15918809Y-2409285D01*
X15775952Y-2409285D01*
X15585476Y-2456904D01*
X15490238Y-2504523D01*
X15395000Y-2599761D01*
X15347380Y-2742619D01*
X15347380Y-2837857D01*
X15395000Y-2980714D01*
X15442619Y-3028333D01*
X15442619Y-3409285D02*
X15395000Y-3456904D01*
X15347380Y-3552142D01*
X15347380Y-3790238D01*
X15395000Y-3885476D01*
X15442619Y-3933095D01*
X15537857Y-3980714D01*
X15633095Y-3980714D01*
X15775952Y-3933095D01*
X16347380Y-3361666D01*
X16347380Y-3980714D01*
G04 #@! TO.C,C3*
X18601666Y-22562142D02*
X18649285Y-22609761D01*
X18792142Y-22657380D01*
X18887380Y-22657380D01*
X19030238Y-22609761D01*
X19125476Y-22514523D01*
X19173095Y-22419285D01*
X19220714Y-22228809D01*
X19220714Y-22085952D01*
X19173095Y-21895476D01*
X19125476Y-21800238D01*
X19030238Y-21705000D01*
X18887380Y-21657380D01*
X18792142Y-21657380D01*
X18649285Y-21705000D01*
X18601666Y-21752619D01*
X18268333Y-21657380D02*
X17649285Y-21657380D01*
X17982619Y-22038333D01*
X17839761Y-22038333D01*
X17744523Y-22085952D01*
X17696904Y-22133571D01*
X17649285Y-22228809D01*
X17649285Y-22466904D01*
X17696904Y-22562142D01*
X17744523Y-22609761D01*
X17839761Y-22657380D01*
X18125476Y-22657380D01*
X18220714Y-22609761D01*
X18268333Y-22562142D01*
G04 #@! TO.C,Q1*
X15787619Y-36734761D02*
X15740000Y-36639523D01*
X15644761Y-36544285D01*
X15501904Y-36401428D01*
X15454285Y-36306190D01*
X15454285Y-36210952D01*
X15692380Y-36258571D02*
X15644761Y-36163333D01*
X15549523Y-36068095D01*
X15359047Y-36020476D01*
X15025714Y-36020476D01*
X14835238Y-36068095D01*
X14740000Y-36163333D01*
X14692380Y-36258571D01*
X14692380Y-36449047D01*
X14740000Y-36544285D01*
X14835238Y-36639523D01*
X15025714Y-36687142D01*
X15359047Y-36687142D01*
X15549523Y-36639523D01*
X15644761Y-36544285D01*
X15692380Y-36449047D01*
X15692380Y-36258571D01*
X15692380Y-37639523D02*
X15692380Y-37068095D01*
X15692380Y-37353809D02*
X14692380Y-37353809D01*
X14835238Y-37258571D01*
X14930476Y-37163333D01*
X14978095Y-37068095D01*
G04 #@! TO.C,D1*
X11247380Y-36091904D02*
X10247380Y-36091904D01*
X10247380Y-36330000D01*
X10295000Y-36472857D01*
X10390238Y-36568095D01*
X10485476Y-36615714D01*
X10675952Y-36663333D01*
X10818809Y-36663333D01*
X11009285Y-36615714D01*
X11104523Y-36568095D01*
X11199761Y-36472857D01*
X11247380Y-36330000D01*
X11247380Y-36091904D01*
X11247380Y-37615714D02*
X11247380Y-37044285D01*
X11247380Y-37330000D02*
X10247380Y-37330000D01*
X10390238Y-37234761D01*
X10485476Y-37139523D01*
X10533095Y-37044285D01*
G04 #@! TO.C,PWM1*
X13945952Y-8707380D02*
X13945952Y-7707380D01*
X13565000Y-7707380D01*
X13469761Y-7755000D01*
X13422142Y-7802619D01*
X13374523Y-7897857D01*
X13374523Y-8040714D01*
X13422142Y-8135952D01*
X13469761Y-8183571D01*
X13565000Y-8231190D01*
X13945952Y-8231190D01*
X13041190Y-7707380D02*
X12803095Y-8707380D01*
X12612619Y-7993095D01*
X12422142Y-8707380D01*
X12184047Y-7707380D01*
X11803095Y-8707380D02*
X11803095Y-7707380D01*
X11469761Y-8421666D01*
X11136428Y-7707380D01*
X11136428Y-8707380D01*
X10136428Y-8707380D02*
X10707857Y-8707380D01*
X10422142Y-8707380D02*
X10422142Y-7707380D01*
X10517380Y-7850238D01*
X10612619Y-7945476D01*
X10707857Y-7993095D01*
G04 #@! TO.C,PWM2*
X13945952Y-12517380D02*
X13945952Y-11517380D01*
X13565000Y-11517380D01*
X13469761Y-11565000D01*
X13422142Y-11612619D01*
X13374523Y-11707857D01*
X13374523Y-11850714D01*
X13422142Y-11945952D01*
X13469761Y-11993571D01*
X13565000Y-12041190D01*
X13945952Y-12041190D01*
X13041190Y-11517380D02*
X12803095Y-12517380D01*
X12612619Y-11803095D01*
X12422142Y-12517380D01*
X12184047Y-11517380D01*
X11803095Y-12517380D02*
X11803095Y-11517380D01*
X11469761Y-12231666D01*
X11136428Y-11517380D01*
X11136428Y-12517380D01*
X10707857Y-11612619D02*
X10660238Y-11565000D01*
X10565000Y-11517380D01*
X10326904Y-11517380D01*
X10231666Y-11565000D01*
X10184047Y-11612619D01*
X10136428Y-11707857D01*
X10136428Y-11803095D01*
X10184047Y-11945952D01*
X10755476Y-12517380D01*
X10136428Y-12517380D01*
G04 #@! TO.C,PWM3*
X13945952Y-16327380D02*
X13945952Y-15327380D01*
X13565000Y-15327380D01*
X13469761Y-15375000D01*
X13422142Y-15422619D01*
X13374523Y-15517857D01*
X13374523Y-15660714D01*
X13422142Y-15755952D01*
X13469761Y-15803571D01*
X13565000Y-15851190D01*
X13945952Y-15851190D01*
X13041190Y-15327380D02*
X12803095Y-16327380D01*
X12612619Y-15613095D01*
X12422142Y-16327380D01*
X12184047Y-15327380D01*
X11803095Y-16327380D02*
X11803095Y-15327380D01*
X11469761Y-16041666D01*
X11136428Y-15327380D01*
X11136428Y-16327380D01*
X10755476Y-15327380D02*
X10136428Y-15327380D01*
X10469761Y-15708333D01*
X10326904Y-15708333D01*
X10231666Y-15755952D01*
X10184047Y-15803571D01*
X10136428Y-15898809D01*
X10136428Y-16136904D01*
X10184047Y-16232142D01*
X10231666Y-16279761D01*
X10326904Y-16327380D01*
X10612619Y-16327380D01*
X10707857Y-16279761D01*
X10755476Y-16232142D01*
G04 #@! TO.C,PWM4*
X13945952Y-20137380D02*
X13945952Y-19137380D01*
X13565000Y-19137380D01*
X13469761Y-19185000D01*
X13422142Y-19232619D01*
X13374523Y-19327857D01*
X13374523Y-19470714D01*
X13422142Y-19565952D01*
X13469761Y-19613571D01*
X13565000Y-19661190D01*
X13945952Y-19661190D01*
X13041190Y-19137380D02*
X12803095Y-20137380D01*
X12612619Y-19423095D01*
X12422142Y-20137380D01*
X12184047Y-19137380D01*
X11803095Y-20137380D02*
X11803095Y-19137380D01*
X11469761Y-19851666D01*
X11136428Y-19137380D01*
X11136428Y-20137380D01*
X10231666Y-19470714D02*
X10231666Y-20137380D01*
X10469761Y-19089761D02*
X10707857Y-19804047D01*
X10088809Y-19804047D01*
G04 #@! TO.C,PWM5*
X13945952Y-23947380D02*
X13945952Y-22947380D01*
X13565000Y-22947380D01*
X13469761Y-22995000D01*
X13422142Y-23042619D01*
X13374523Y-23137857D01*
X13374523Y-23280714D01*
X13422142Y-23375952D01*
X13469761Y-23423571D01*
X13565000Y-23471190D01*
X13945952Y-23471190D01*
X13041190Y-22947380D02*
X12803095Y-23947380D01*
X12612619Y-23233095D01*
X12422142Y-23947380D01*
X12184047Y-22947380D01*
X11803095Y-23947380D02*
X11803095Y-22947380D01*
X11469761Y-23661666D01*
X11136428Y-22947380D01*
X11136428Y-23947380D01*
X10184047Y-22947380D02*
X10660238Y-22947380D01*
X10707857Y-23423571D01*
X10660238Y-23375952D01*
X10565000Y-23328333D01*
X10326904Y-23328333D01*
X10231666Y-23375952D01*
X10184047Y-23423571D01*
X10136428Y-23518809D01*
X10136428Y-23756904D01*
X10184047Y-23852142D01*
X10231666Y-23899761D01*
X10326904Y-23947380D01*
X10565000Y-23947380D01*
X10660238Y-23899761D01*
X10707857Y-23852142D01*
G04 #@! TO.C,PWM6*
X13945952Y-27757380D02*
X13945952Y-26757380D01*
X13565000Y-26757380D01*
X13469761Y-26805000D01*
X13422142Y-26852619D01*
X13374523Y-26947857D01*
X13374523Y-27090714D01*
X13422142Y-27185952D01*
X13469761Y-27233571D01*
X13565000Y-27281190D01*
X13945952Y-27281190D01*
X13041190Y-26757380D02*
X12803095Y-27757380D01*
X12612619Y-27043095D01*
X12422142Y-27757380D01*
X12184047Y-26757380D01*
X11803095Y-27757380D02*
X11803095Y-26757380D01*
X11469761Y-27471666D01*
X11136428Y-26757380D01*
X11136428Y-27757380D01*
X10231666Y-26757380D02*
X10422142Y-26757380D01*
X10517380Y-26805000D01*
X10565000Y-26852619D01*
X10660238Y-26995476D01*
X10707857Y-27185952D01*
X10707857Y-27566904D01*
X10660238Y-27662142D01*
X10612619Y-27709761D01*
X10517380Y-27757380D01*
X10326904Y-27757380D01*
X10231666Y-27709761D01*
X10184047Y-27662142D01*
X10136428Y-27566904D01*
X10136428Y-27328809D01*
X10184047Y-27233571D01*
X10231666Y-27185952D01*
X10326904Y-27138333D01*
X10517380Y-27138333D01*
X10612619Y-27185952D01*
X10660238Y-27233571D01*
X10707857Y-27328809D01*
G04 #@! TO.C,PWM7*
X13945952Y-31567380D02*
X13945952Y-30567380D01*
X13565000Y-30567380D01*
X13469761Y-30615000D01*
X13422142Y-30662619D01*
X13374523Y-30757857D01*
X13374523Y-30900714D01*
X13422142Y-30995952D01*
X13469761Y-31043571D01*
X13565000Y-31091190D01*
X13945952Y-31091190D01*
X13041190Y-30567380D02*
X12803095Y-31567380D01*
X12612619Y-30853095D01*
X12422142Y-31567380D01*
X12184047Y-30567380D01*
X11803095Y-31567380D02*
X11803095Y-30567380D01*
X11469761Y-31281666D01*
X11136428Y-30567380D01*
X11136428Y-31567380D01*
X10755476Y-30567380D02*
X10088809Y-30567380D01*
X10517380Y-31567380D01*
G04 #@! TO.C,PWM8*
X13945952Y-35377380D02*
X13945952Y-34377380D01*
X13565000Y-34377380D01*
X13469761Y-34425000D01*
X13422142Y-34472619D01*
X13374523Y-34567857D01*
X13374523Y-34710714D01*
X13422142Y-34805952D01*
X13469761Y-34853571D01*
X13565000Y-34901190D01*
X13945952Y-34901190D01*
X13041190Y-34377380D02*
X12803095Y-35377380D01*
X12612619Y-34663095D01*
X12422142Y-35377380D01*
X12184047Y-34377380D01*
X11803095Y-35377380D02*
X11803095Y-34377380D01*
X11469761Y-35091666D01*
X11136428Y-34377380D01*
X11136428Y-35377380D01*
X10517380Y-34805952D02*
X10612619Y-34758333D01*
X10660238Y-34710714D01*
X10707857Y-34615476D01*
X10707857Y-34567857D01*
X10660238Y-34472619D01*
X10612619Y-34425000D01*
X10517380Y-34377380D01*
X10326904Y-34377380D01*
X10231666Y-34425000D01*
X10184047Y-34472619D01*
X10136428Y-34567857D01*
X10136428Y-34615476D01*
X10184047Y-34710714D01*
X10231666Y-34758333D01*
X10326904Y-34805952D01*
X10517380Y-34805952D01*
X10612619Y-34853571D01*
X10660238Y-34901190D01*
X10707857Y-34996428D01*
X10707857Y-35186904D01*
X10660238Y-35282142D01*
X10612619Y-35329761D01*
X10517380Y-35377380D01*
X10326904Y-35377380D01*
X10231666Y-35329761D01*
X10184047Y-35282142D01*
X10136428Y-35186904D01*
X10136428Y-34996428D01*
X10184047Y-34901190D01*
X10231666Y-34853571D01*
X10326904Y-34805952D01*
G04 #@! TO.C,PWMIN1*
X28677857Y-30297380D02*
X28677857Y-29297380D01*
X28296904Y-29297380D01*
X28201666Y-29345000D01*
X28154047Y-29392619D01*
X28106428Y-29487857D01*
X28106428Y-29630714D01*
X28154047Y-29725952D01*
X28201666Y-29773571D01*
X28296904Y-29821190D01*
X28677857Y-29821190D01*
X27773095Y-29297380D02*
X27535000Y-30297380D01*
X27344523Y-29583095D01*
X27154047Y-30297380D01*
X26915952Y-29297380D01*
X26535000Y-30297380D02*
X26535000Y-29297380D01*
X26201666Y-30011666D01*
X25868333Y-29297380D01*
X25868333Y-30297380D01*
X25392142Y-30297380D02*
X25392142Y-29297380D01*
X24915952Y-30297380D02*
X24915952Y-29297380D01*
X24344523Y-30297380D01*
X24344523Y-29297380D01*
X23344523Y-30297380D02*
X23915952Y-30297380D01*
X23630238Y-30297380D02*
X23630238Y-29297380D01*
X23725476Y-29440238D01*
X23820714Y-29535476D01*
X23915952Y-29583095D01*
G04 #@! TO.C,PWMIN2*
X28677857Y-34107380D02*
X28677857Y-33107380D01*
X28296904Y-33107380D01*
X28201666Y-33155000D01*
X28154047Y-33202619D01*
X28106428Y-33297857D01*
X28106428Y-33440714D01*
X28154047Y-33535952D01*
X28201666Y-33583571D01*
X28296904Y-33631190D01*
X28677857Y-33631190D01*
X27773095Y-33107380D02*
X27535000Y-34107380D01*
X27344523Y-33393095D01*
X27154047Y-34107380D01*
X26915952Y-33107380D01*
X26535000Y-34107380D02*
X26535000Y-33107380D01*
X26201666Y-33821666D01*
X25868333Y-33107380D01*
X25868333Y-34107380D01*
X25392142Y-34107380D02*
X25392142Y-33107380D01*
X24915952Y-34107380D02*
X24915952Y-33107380D01*
X24344523Y-34107380D01*
X24344523Y-33107380D01*
X23915952Y-33202619D02*
X23868333Y-33155000D01*
X23773095Y-33107380D01*
X23535000Y-33107380D01*
X23439761Y-33155000D01*
X23392142Y-33202619D01*
X23344523Y-33297857D01*
X23344523Y-33393095D01*
X23392142Y-33535952D01*
X23963571Y-34107380D01*
X23344523Y-34107380D01*
G04 #@! TO.C,SWPWR1*
X7349761Y-39349761D02*
X7206904Y-39397380D01*
X6968809Y-39397380D01*
X6873571Y-39349761D01*
X6825952Y-39302142D01*
X6778333Y-39206904D01*
X6778333Y-39111666D01*
X6825952Y-39016428D01*
X6873571Y-38968809D01*
X6968809Y-38921190D01*
X7159285Y-38873571D01*
X7254523Y-38825952D01*
X7302142Y-38778333D01*
X7349761Y-38683095D01*
X7349761Y-38587857D01*
X7302142Y-38492619D01*
X7254523Y-38445000D01*
X7159285Y-38397380D01*
X6921190Y-38397380D01*
X6778333Y-38445000D01*
X6445000Y-38397380D02*
X6206904Y-39397380D01*
X6016428Y-38683095D01*
X5825952Y-39397380D01*
X5587857Y-38397380D01*
X5206904Y-39397380D02*
X5206904Y-38397380D01*
X4825952Y-38397380D01*
X4730714Y-38445000D01*
X4683095Y-38492619D01*
X4635476Y-38587857D01*
X4635476Y-38730714D01*
X4683095Y-38825952D01*
X4730714Y-38873571D01*
X4825952Y-38921190D01*
X5206904Y-38921190D01*
X4302142Y-38397380D02*
X4064047Y-39397380D01*
X3873571Y-38683095D01*
X3683095Y-39397380D01*
X3444999Y-38397380D01*
X2492619Y-39397380D02*
X2825952Y-38921190D01*
X3064047Y-39397380D02*
X3064047Y-38397380D01*
X2683095Y-38397380D01*
X2587857Y-38445000D01*
X2540238Y-38492619D01*
X2492619Y-38587857D01*
X2492619Y-38730714D01*
X2540238Y-38825952D01*
X2587857Y-38873571D01*
X2683095Y-38921190D01*
X3064047Y-38921190D01*
X1540238Y-39397380D02*
X2111666Y-39397380D01*
X1825952Y-39397380D02*
X1825952Y-38397380D01*
X1921190Y-38540238D01*
X2016428Y-38635476D01*
X2111666Y-38683095D01*
G04 #@! TO.C,SWPWR_TEST1*
X27074761Y-38838809D02*
X27122380Y-38981666D01*
X27122380Y-39219761D01*
X27074761Y-39315000D01*
X27027142Y-39362619D01*
X26931904Y-39410238D01*
X26836666Y-39410238D01*
X26741428Y-39362619D01*
X26693809Y-39315000D01*
X26646190Y-39219761D01*
X26598571Y-39029285D01*
X26550952Y-38934047D01*
X26503333Y-38886428D01*
X26408095Y-38838809D01*
X26312857Y-38838809D01*
X26217619Y-38886428D01*
X26170000Y-38934047D01*
X26122380Y-39029285D01*
X26122380Y-39267380D01*
X26170000Y-39410238D01*
X26122380Y-39743571D02*
X27122380Y-39981666D01*
X26408095Y-40172142D01*
X27122380Y-40362619D01*
X26122380Y-40600714D01*
X27122380Y-40981666D02*
X26122380Y-40981666D01*
X26122380Y-41362619D01*
X26170000Y-41457857D01*
X26217619Y-41505476D01*
X26312857Y-41553095D01*
X26455714Y-41553095D01*
X26550952Y-41505476D01*
X26598571Y-41457857D01*
X26646190Y-41362619D01*
X26646190Y-40981666D01*
X26122380Y-41886428D02*
X27122380Y-42124523D01*
X26408095Y-42315000D01*
X27122380Y-42505476D01*
X26122380Y-42743571D01*
X27122380Y-43695952D02*
X26646190Y-43362619D01*
X27122380Y-43124523D02*
X26122380Y-43124523D01*
X26122380Y-43505476D01*
X26170000Y-43600714D01*
X26217619Y-43648333D01*
X26312857Y-43695952D01*
X26455714Y-43695952D01*
X26550952Y-43648333D01*
X26598571Y-43600714D01*
X26646190Y-43505476D01*
X26646190Y-43124523D01*
X27217619Y-43886428D02*
X27217619Y-44648333D01*
X26122380Y-44743571D02*
X26122380Y-45315000D01*
X27122380Y-45029285D02*
X26122380Y-45029285D01*
X26598571Y-45648333D02*
X26598571Y-45981666D01*
X27122380Y-46124523D02*
X27122380Y-45648333D01*
X26122380Y-45648333D01*
X26122380Y-46124523D01*
X27074761Y-46505476D02*
X27122380Y-46648333D01*
X27122380Y-46886428D01*
X27074761Y-46981666D01*
X27027142Y-47029285D01*
X26931904Y-47076904D01*
X26836666Y-47076904D01*
X26741428Y-47029285D01*
X26693809Y-46981666D01*
X26646190Y-46886428D01*
X26598571Y-46695952D01*
X26550952Y-46600714D01*
X26503333Y-46553095D01*
X26408095Y-46505476D01*
X26312857Y-46505476D01*
X26217619Y-46553095D01*
X26170000Y-46600714D01*
X26122380Y-46695952D01*
X26122380Y-46934047D01*
X26170000Y-47076904D01*
X26122380Y-47362619D02*
X26122380Y-47934047D01*
X27122380Y-47648333D02*
X26122380Y-47648333D01*
X27122380Y-48791190D02*
X27122380Y-48219761D01*
X27122380Y-48505476D02*
X26122380Y-48505476D01*
X26265238Y-48410238D01*
X26360476Y-48315000D01*
X26408095Y-48219761D01*
G04 #@! TO.C,VIN1*
X10461428Y-2627380D02*
X10128095Y-3627380D01*
X9794761Y-2627380D01*
X9461428Y-3627380D02*
X9461428Y-2627380D01*
X8985238Y-3627380D02*
X8985238Y-2627380D01*
X8413809Y-3627380D01*
X8413809Y-2627380D01*
X7413809Y-3627380D02*
X7985238Y-3627380D01*
X7699523Y-3627380D02*
X7699523Y-2627380D01*
X7794761Y-2770238D01*
X7890000Y-2865476D01*
X7985238Y-2913095D01*
G04 #@! TD*
M02*
